<svg xmlns="http://www.w3.org/2000/svg" width="24" height="24" fill="none" viewBox="0 0 24 24"><path fill="#fff" d="M18 12a2 2 0 0 0 0 4h4v-4h-4"/><path fill="#fff" d="M20 12V8H6a2 2 0 0 1-2-2v12c0 1.1.9 2 2 2h14v-4h-2a2 2 0 1 1 0-4z"/><path fill="#fff" d="M6 8h12V4H6a2 2 0 1 0 0 4"/><path stroke="#343434" stroke-linecap="round" stroke-linejoin="round" stroke-width="1.5" d="M20 12V8m0 4h-2m2 0h2m-2-4H6m14 0h-2M6 8a2 2 0 0 1-2-2m2 2h12M4 6c0-1.1.9-2 2-2h12v4M4 6v12c0 1.1.9 2 2 2h14v-4m0 0h-2m2 0h2m-4-4a2 2 0 0 0 0 4m0-4h4m-4 4h4m0 0v-4"/></svg>