<svg xmlns="http://www.w3.org/2000/svg" width="24" height="24" fill="none" viewBox="0 0 24 24"><path fill="#fff" d="M12.403 14.291c.74 0 1.164-.773.544-1.176a4 4 0 0 0-.788-.393 7.7 7.7 0 0 0-2.758-.5 7.9 7.9 0 0 0-2.769.5q-.45.168-.806.401c-.616.402-.191 1.168.544 1.168zm-7.848.998c-.553 0-1.02-.457-.874-.99q.352-1.283 1.685-2.042 1.81-1.032 4.03-1.032 2.227 0 4.035 1.032 1.33.759 1.681 2.043c.146.532-.321.989-.874.989zm-.502 2.628a.499.499 0 1 1 0-.997H14.74a.499.499 0 0 1 0 .997zm13.098 2.734a.499.499 0 0 1 0-.997h.29a.79.79 0 0 0 .784-.71l.988-9.8a1 1 0 0 0-.995-1.101h-6.27a.499.499 0 0 1 0-.998h2.444a1 1 0 0 0 1-1V4.028a.499.499 0 1 1 .997 0v2.017a1 1 0 0 0 1 1h1.951a1 1 0 0 1 .995 1.103l-1.188 11.51a1.1 1.1 0 0 1-.38.712 1.14 1.14 0 0 1-.765.281zm-13.02 0a.56.56 0 0 1-.576-.572c0-.235.19-.425.426-.425H14.81c.237 0 .428.191.428.428a.553.553 0 0 1-.576.57z"/></svg>