<svg xmlns="http://www.w3.org/2000/svg" width="24" height="24" fill="none" viewBox="0 0 24 24"><path fill="#fff" d="M10.818 10.394a1 1 0 0 0 1 1h.379a1 1 0 0 0 1-1V5.413a1.16 1.16 0 0 0-.342-.848 1.15 1.15 0 0 0-.851-.346q-.51 0-.848.342a1.16 1.16 0 0 0-.338.852zm-4.92 3.376a1 1 0 0 0 1 1h10.219a1 1 0 0 0 1-1v-1.122a.25.25 0 0 0-.075-.182.25.25 0 0 0-.182-.074H6.155a.252.252 0 0 0-.256.257zm-1.008 6h1.532a1 1 0 0 0 1-1v-.995q0-.213.141-.36a.47.47 0 0 1 .355-.145q.215 0 .358.146a.5.5 0 0 1 .144.359v.995a1 1 0 0 0 1 1h1.089a1 1 0 0 0 1-1v-.995q0-.213.14-.36a.47.47 0 0 1 .356-.145q.214 0 .358.146a.5.5 0 0 1 .143.359v.995a1 1 0 0 0 1 1h1.09a1 1 0 0 0 1-1v-.995q0-.213.14-.36a.47.47 0 0 1 .355-.145q.215 0 .358.146a.5.5 0 0 1 .144.359v.995a1 1 0 0 0 1 1h1.52a.25.25 0 0 0 .207-.098.24.24 0 0 0 .042-.222l-.842-3.144a1 1 0 0 0-.966-.741H6.45a1 1 0 0 0-.966.741l-.842 3.144a.24.24 0 0 0 .042.222q.077.098.206.098m13.994.998H5.12q-.703 0-1.135-.556a1.33 1.33 0 0 1-.239-1.241l1.12-4.16a1 1 0 0 0 .034-.26v-1.718q0-.6.416-1.019.417-.42 1.012-.42h2.492a1 1 0 0 0 1-1v-4.98q0-.914.636-1.553.637-.64 1.547-.64t1.55.64.64 1.552v4.981a1 1 0 0 0 1 1h2.481q.6 0 1.02.42t.42 1.02v1.714a1 1 0 0 0 .033.258l1.12 4.191q.17.678-.258 1.224a1.36 1.36 0 0 1-1.126.547"/></svg>