<svg xmlns="http://www.w3.org/2000/svg" width="24" height="24" fill="none" viewBox="0 0 24 24"><path fill="#fff" d="M18.215 20.673a.6.6 0 0 1-.262-.054.8.8 0 0 1-.217-.156l-5.121-5.117a.8.8 0 0 1-.159-.217.6.6 0 0 1-.057-.26.6.6 0 0 1 .057-.26q.057-.116.159-.23l1.737-1.725a.8.8 0 0 1 .218-.159.6.6 0 0 1 .262-.056q.144 0 .258.056.114.057.234.16l5.109 5.108q.102.114.156.23a.6.6 0 0 1 .054.263.6.6 0 0 1-.054.262.8.8 0 0 1-.156.217l-1.725 1.728a1 1 0 0 1-.23.156.6.6 0 0 1-.263.054m-.58-1.839a.82.82 0 0 0 1.163-1.16l-3.386-3.394a.82.82 0 1 0-1.163 1.16zM5.763 20.666a.8.8 0 0 1-.27-.044.56.56 0 0 1-.224-.16L3.547 18.75a.56.56 0 0 1-.158-.226.8.8 0 0 1-.045-.27q0-.146.045-.266a.56.56 0 0 1 .157-.22l4.63-4.643a1 1 0 0 1 .708-.293h1.183a.813.813 0 0 0 .574-1.388L7.534 8.337a1 1 0 0 0-.707-.293H6.35a1 1 0 0 1-.707-.293L4.086 6.195a1 1 0 0 1-.002-1.412l.663-.667a1 1 0 0 1 1.416-.002l1.564 1.564a1 1 0 0 1 .293.707v.478a1 1 0 0 0 .293.707l2.968 2.969a1 1 0 0 0 1.413 0l1.493-1.486a1 1 0 0 0 .002-1.416l-.548-.548a.495.495 0 0 1-.002-.698.495.495 0 0 0-.351-.843h-1.056a.36.36 0 0 1-.255-.613l2.213-2.223a.367.367 0 0 1 .628.26v1.056c0 .437.528.654.835.344.19-.193.501-.194.693-.002l3.38 3.374q.327.329.512.758.186.43.186.903 0 .374-.122.744c-.124.379-.596.415-.878.134l-.733-.734a.914.914 0 0 0-1.292 0l-.105.105a.765.765 0 0 1-1.082 0 .765.765 0 0 0-1.083.001l-3.667 3.677a1 1 0 0 0-.292.706v1.105a1 1 0 0 1-.295.708l-4.632 4.613a.6.6 0 0 1-.217.158.7.7 0 0 1-.263.044m0-1.26 4.34-4.328a.828.828 0 1 0-1.17-1.172l-4.33 4.34zm0 0-1.16-1.16.581.58z"/></svg>