<svg xmlns="http://www.w3.org/2000/svg" width="24" height="24" fill="none"><path fill="#fff" d="M3.216 18.417a.6.6 0 0 1-.599-.598v-5.006q0-.511.25-1.036.12-.25.294-.447c.237-.266.444-.58.444-.937v-1.98q0-.946.662-1.609a2.2 2.2 0 0 1 1.61-.661h4.482q.515 0 .935.23c.408.225.997.227 1.404 0q.414-.23.93-.23h4.482q.95 0 1.615.66.667.66.667 1.606v1.984c0 .354.204.667.44.93q.177.2.299.455.249.525.249 1.037v5.004a.599.599 0 1 1-1.197 0v-.396a.994.994 0 0 0-.994-.994H4.809a.994.994 0 0 0-.995.994v.396c0 .33-.268.598-.598.598m9.387-8.788a1 1 0 0 0 1 1h4.592a1 1 0 0 0 1-1V8.414q0-.46-.313-.767a1.05 1.05 0 0 0-.767-.307H13.59a.9.9 0 0 0-.706.32 1.1 1.1 0 0 0-.282.758zm-7.8 0a1 1 0 0 0 1 1h4.591a1 1 0 0 0 1-1V8.412q0-.433-.279-.753a.9.9 0 0 0-.707-.32H5.875q-.445 0-.759.316t-.314.763zm-.989 4.603a1 1 0 0 0 1 1h14.369a1 1 0 0 0 1-1v-1.42a.964.964 0 0 0-.983-.986H4.8a.95.95 0 0 0-.704.282.95.95 0 0 0-.282.702z"/></svg>