<svg xmlns="http://www.w3.org/2000/svg" width="24" height="24" fill="none" viewBox="0 0 24 24"><path fill="#fff" d="M16.182 18.815a1 1 0 0 1-1.414 0l-2.586-2.586a.607.607 0 1 1 .86-.86l1.726 1.727a1 1 0 0 0 1.414 0l4.644-4.644a.608.608 0 0 1 .86.86zm4.21-9.56a.599.599 0 0 1-1.197 0V5.11a.3.3 0 0 0-.096-.211.3.3 0 0 0-.212-.096h-.89a1 1 0 0 0-1 1v.154a1 1 0 0 1-1 1H8a1 1 0 0 1-1-1v-.154a1 1 0 0 0-1-1h-.89A.3.3 0 0 0 4.9 4.9a.3.3 0 0 0-.096.211v13.777q0 .116.096.212a.3.3 0 0 0 .211.096h5.179a.599.599 0 1 1 0 1.197H5.11q-.639 0-1.072-.429a1.45 1.45 0 0 1-.433-1.076V5.111q0-.646.43-1.075.428-.43 1.075-.43h4.037c.478 0 .865-.359 1.13-.756q.164-.243.402-.445.567-.48 1.32-.479.759 0 1.32.48.24.206.408.458c.26.394.644.743 1.115.743h4.045q.647 0 1.076.429t.429 1.075zM12 4.871a.86.86 0 0 0 .623-.253.84.84 0 0 0 .257-.621.84.84 0 0 0-.256-.622.85.85 0 0 0-.624-.253.83.83 0 0 0-.619.255.85.85 0 0 0-.25.615q0 .372.251.625.251.255.618.254"/></svg>