<svg xmlns="http://www.w3.org/2000/svg" width="24" height="24" fill="none"><path fill="#fff" d="M6.11 8.645h7.987a1 1 0 0 0 1-1v-1.18q0-1.29-.898-2.19-.897-.9-2.196-.9-1.298 0-2.2.899a2.95 2.95 0 0 0-.851 1.603c-.058.326-.32.596-.65.596s-.603-.27-.562-.597q.177-1.413 1.215-2.45 1.251-1.248 3.047-1.248 1.794 0 3.043 1.25t1.249 3.05v1.167a1 1 0 0 0 1 1h.593q.618 0 1.062.441.443.441.443 1.064v9.726q0 .618-.443 1.062-.444.443-1.062.443H6.11q-.618 0-1.061-.443a1.45 1.45 0 0 1-.444-1.062V10.15q0-.623.444-1.064.444-.44 1.061-.44m0 11.54h11.777a.3.3 0 0 0 .221-.087.3.3 0 0 0 .087-.222V10.15a.3.3 0 0 0-.087-.221.3.3 0 0 0-.22-.087H6.11a.3.3 0 0 0-.22.087.3.3 0 0 0-.087.221v9.726a.3.3 0 0 0 .086.221.3.3 0 0 0 .221.087M12 16.69q.693 0 1.185-.485.49-.484.49-1.17 0-.67-.491-1.185a1.58 1.58 0 0 0-1.186-.515q-.693 0-1.185.513a1.67 1.67 0 0 0-.492 1.19q0 .68.492 1.165.493.486 1.186.486"/></svg>