<svg xmlns="http://www.w3.org/2000/svg" width="24" height="24" fill="none"><path fill="#fff" d="M5.436 18.984q-.51 0-.882-.37a1.2 1.2 0 0 1-.37-.884V8.67q0-.512.37-.883.37-.37.884-.37h2.706a1 1 0 0 0 1-1v-.565q0-.513.37-.883.372-.37.882-.37h3.21q.511 0 .882.37.37.37.37.884v.563a1 1 0 0 0 1 1h2.707q.513 0 .883.371.372.371.371.883v9.06q0 .512-.37.884-.371.37-.882.37zm.002-.997h13.127a.25.25 0 0 0 .176-.08.25.25 0 0 0 .08-.177V8.67a.25.25 0 0 0-.08-.176.25.25 0 0 0-.176-.08H5.438a.25.25 0 0 0-.177.08.25.25 0 0 0-.08.176v9.06q0 .096.08.177t.177.08m4.704-11.57a1 1 0 0 0 1 1h1.72a1 1 0 0 0 1-1v-.564a.25.25 0 0 0-.08-.177.25.25 0 0 0-.177-.08h-3.207a.25.25 0 0 0-.176.08.25.25 0 0 0-.08.177z"/></svg>